<?xml version="1.0" encoding="utf-8"?>
<!-- Generator: Adobe Illustrator 19.1.0, SVG Export Plug-In . SVG Version: 6.00 Build 0)  -->
<svg version="1.1" id="Layer_1" xmlns="http://www.w3.org/2000/svg" xmlns:xlink="http://www.w3.org/1999/xlink" x="0px" y="0px"
	 viewBox="-255 347 100 100" style="enable-background:new -255 347 100 100;" xml:space="preserve">
<style type="text/css">
	.st0{display:none;fill:none;stroke:#AAAAAA;stroke-width:3;stroke-miterlimit:10;}
	.st1{fill:#999999;}
</style>
<circle class="st0" cx="-5320" cy="3038.2" r="47.9"/>
<path class="st1" d="M-205.5,421.5c-4,0-7.9-0.2-9.3-0.5c-3-0.8-4.8-2.7-4.8-5.4v-37.3c0-3.1,1.5-4.8,4.8-5.4
	c3.2-0.6,16.8-0.7,19.7,0c3,0.8,4.8,2.7,4.8,5.4v37.2c0,3.1-1.5,4.8-4.8,5.4C-196.9,421.3-201.2,421.5-205.5,421.5z M-204.8,374.3
	c-4,0-8.2,0.2-9.8,0.5c-2.7,0.5-3.2,1.7-3.2,3.5v37.2c0,1.8,1.1,2.9,3.3,3.5c2.5,0.6,15.7,0.6,18.9,0c2.7-0.5,3.2-1.7,3.2-3.5v-37.2
	c0-1.8-1.1-2.9-3.3-3.5C-196.9,374.5-200.8,374.3-204.8,374.3z"/>
<path class="st1" d="M-194.9,415.1h-20.4c-0.6,0-1-0.4-1-1V379c0-0.6,0.4-1,1-1h20.5c0.6,0,1,0.4,1,1v35.1
	C-193.9,414.7-194.2,415.1-194.9,415.1z M-214.2,413.1h18.5V380h-18.5V413.1z"/>
<path class="st1" d="M-208.4,418.4h-1.7c-0.6,0-1-0.4-1-1s0.4-1,1-1h1.7c0.6,0,1,0.4,1,1S-207.9,418.4-208.4,418.4z"/>
<path class="st1" d="M-204.2,418.4h-1.7c-0.6,0-1-0.4-1-1s0.4-1,1-1h1.7c0.6,0,1,0.4,1,1S-203.6,418.4-204.2,418.4z"/>
<path class="st1" d="M-199.9,418.4h-1.7c-0.6,0-1-0.4-1-1s0.4-1,1-1h1.7c0.6,0,1,0.4,1,1S-199.4,418.4-199.9,418.4z"/>
<path class="st1" d="M-205,351.4c-25.2,0-45.6,20.4-45.6,45.6s20.4,45.6,45.6,45.6s45.6-20.4,45.6-45.6
	C-159.4,371.8-179.8,351.4-205,351.4z M-205,440.3c-24,0-43.3-19.5-43.3-43.3c0-24,19.5-43.3,43.3-43.3s43.3,19.5,43.3,43.3
	C-161.7,421-181,440.3-205,440.3z"/>
</svg>
